<?xml version="1.0" standalone="no"?>
<!DOCTYPE svg PUBLIC "-//W3C//DTD SVG 20010904//EN"
 "http://www.w3.org/TR/2001/REC-SVG-20010904/DTD/svg10.dtd">
<svg version="1.0" xmlns="http://www.w3.org/2000/svg"
 width="899.000000pt" height="900.000000pt" viewBox="0 0 899.000000 900.000000"
 preserveAspectRatio="xMidYMid meet">
<metadata>
Created by potrace 1.12, written by Peter Selinger 2001-2015
</metadata>
<g transform="translate(0.000000,900.000000) scale(0.100000,-0.100000)"
fill="#000000" stroke="none">
<path d="M4128 8673 c-49 -2 -88 -7 -88 -12 0 -4 -48 -11 -107 -15 -59 -4
-112 -11 -118 -15 -5 -5 -45 -12 -87 -16 -43 -4 -78 -11 -78 -15 0 -5 -29 -12
-65 -15 -36 -4 -68 -11 -70 -15 -3 -5 -30 -12 -60 -15 -31 -4 -58 -11 -61 -16
-2 -5 -27 -11 -54 -15 -28 -4 -50 -10 -50 -15 0 -4 -20 -11 -45 -15 -25 -3
-45 -10 -45 -15 0 -4 -20 -11 -45 -15 -25 -3 -45 -10 -45 -15 0 -4 -20 -11
-45 -15 -25 -3 -45 -10 -45 -14 0 -5 -15 -12 -32 -15 -18 -4 -42 -14 -53 -21
-11 -8 -30 -14 -42 -14 -13 0 -23 -4 -23 -9 0 -5 -13 -12 -30 -16 -16 -4 -30
-11 -30 -16 0 -5 -7 -9 -17 -9 -20 0 -343 -161 -343 -171 0 -4 -13 -10 -30
-14 -17 -4 -30 -10 -30 -15 0 -4 -8 -10 -17 -14 -10 -3 -36 -17 -58 -30 -22
-14 -47 -28 -55 -32 -8 -4 -17 -10 -20 -13 -11 -13 -70 -51 -79 -51 -5 0 -11
-3 -13 -7 -4 -9 -65 -53 -73 -53 -6 0 -12 -4 -66 -50 -20 -16 -41 -30 -46 -30
-5 0 -20 -13 -33 -30 -14 -16 -30 -29 -36 -30 -5 0 -23 -13 -39 -30 -16 -16
-33 -30 -39 -30 -5 0 -29 -20 -53 -45 -23 -25 -46 -45 -50 -45 -5 0 -89 -81
-188 -180 -99 -99 -176 -180 -172 -180 4 0 -16 -22 -44 -50 -28 -27 -48 -50
-43 -50 4 0 -10 -18 -31 -40 -21 -22 -36 -40 -31 -40 4 0 -9 -15 -28 -34 -20
-18 -33 -35 -31 -38 3 -2 -6 -15 -20 -28 -14 -13 -25 -29 -25 -37 0 -7 -5 -13
-10 -13 -6 0 -15 -10 -20 -22 -15 -34 -32 -59 -59 -85 -13 -13 -20 -23 -16
-23 5 0 -1 -10 -13 -22 -11 -13 -25 -34 -31 -48 -14 -33 -33 -63 -46 -72 -5
-4 -6 -8 -1 -8 5 0 0 -10 -12 -22 -11 -13 -25 -34 -31 -48 -14 -31 -33 -63
-44 -71 -5 -3 -8 -8 -8 -10 2 -13 -13 -49 -20 -49 -5 0 -9 -3 -8 -7 2 -16 -14
-53 -22 -53 -5 0 -9 -3 -8 -7 2 -16 -14 -53 -22 -53 -5 0 -9 -3 -8 -7 2 -16
-14 -53 -22 -53 -5 0 -9 -3 -8 -7 2 -16 -14 -53 -23 -53 -5 0 -8 -6 -5 -12 2
-7 -7 -32 -20 -55 -12 -23 -23 -51 -23 -62 0 -12 -4 -21 -10 -21 -5 0 -10 -3
-9 -7 2 -16 -14 -53 -23 -53 -6 0 -8 -7 -5 -15 4 -8 2 -17 -3 -20 -6 -4 -10
-17 -10 -31 0 -13 -5 -24 -11 -24 -6 0 -9 -7 -6 -15 4 -8 2 -17 -3 -20 -6 -4
-10 -17 -10 -31 0 -13 -5 -24 -11 -24 -6 0 -9 -7 -6 -15 4 -8 2 -17 -3 -20 -6
-4 -10 -17 -10 -31 0 -13 -5 -24 -11 -24 -6 0 -9 -7 -6 -15 4 -8 2 -17 -3 -20
-6 -4 -10 -17 -10 -31 0 -13 -5 -24 -11 -24 -7 0 -9 -10 -5 -24 3 -14 2 -28
-4 -31 -5 -3 -10 -19 -10 -36 0 -16 -5 -29 -11 -29 -7 0 -9 -10 -7 -25 3 -14
1 -28 -3 -31 -5 -3 -9 -18 -9 -35 0 -16 -5 -29 -11 -29 -7 0 -9 -12 -7 -30 3
-17 1 -33 -4 -36 -4 -3 -8 -23 -8 -45 0 -21 -5 -39 -11 -39 -6 0 -9 -16 -8
-40 2 -21 0 -42 -4 -46 -4 -4 -7 -27 -7 -51 0 -24 -5 -43 -11 -43 -6 0 -9 -21
-8 -55 1 -30 0 -58 -4 -62 -4 -3 -7 -30 -7 -60 l0 -53 1343 2 1342 3 3 28 c2
15 8 27 13 27 5 0 9 7 9 16 0 22 89 200 106 215 8 6 14 16 14 21 0 6 14 27 30
48 17 21 30 42 30 47 0 6 9 18 20 28 11 10 20 23 21 29 1 14 279 278 299 284
8 3 31 17 50 31 68 50 252 146 303 156 18 4 37 11 42 15 6 4 26 11 45 15 19 4
40 11 46 16 6 5 33 12 60 15 27 4 54 11 60 16 6 4 62 11 123 15 61 3 114 10
117 15 3 4 34 8 69 8 35 0 66 -4 69 -8 3 -5 56 -12 117 -15 61 -4 117 -11 123
-15 6 -5 33 -12 60 -16 27 -3 54 -10 60 -15 6 -5 27 -12 46 -16 19 -4 40 -11
45 -15 6 -4 24 -11 42 -15 51 -10 235 -106 303 -156 19 -14 42 -28 50 -31 20
-6 298 -270 299 -284 1 -6 10 -19 21 -29 11 -10 20 -22 20 -28 0 -5 14 -26 30
-47 17 -21 30 -42 30 -48 0 -5 6 -15 14 -21 17 -15 106 -193 106 -215 0 -9 4
-16 9 -16 5 0 11 -12 13 -27 l3 -28 1373 -3 1372 -2 0 53 c0 30 -3 57 -7 60
-4 4 -5 32 -4 62 1 34 -2 55 -8 55 -6 0 -11 19 -11 43 0 24 -3 47 -7 51 -4 4
-6 25 -4 46 1 24 -2 40 -8 40 -6 0 -11 18 -11 39 0 22 -4 42 -8 45 -5 3 -7 19
-4 36 2 18 0 30 -7 30 -6 0 -11 13 -11 29 0 17 -4 32 -9 35 -4 3 -6 17 -3 31
2 15 0 25 -7 25 -6 0 -11 13 -11 29 0 17 -5 33 -10 36 -6 3 -7 17 -4 31 4 14
2 24 -5 24 -6 0 -11 11 -11 24 0 14 -4 27 -10 31 -5 3 -7 12 -3 20 3 8 0 15
-6 15 -6 0 -11 11 -11 24 0 14 -4 27 -10 31 -5 3 -7 12 -3 20 3 8 0 15 -6 15
-6 0 -11 11 -11 24 0 14 -4 27 -10 31 -5 3 -7 12 -3 20 3 8 0 15 -6 15 -6 0
-11 11 -11 24 0 14 -4 27 -10 31 -5 3 -7 12 -3 20 3 8 1 15 -5 15 -9 0 -25 37
-23 53 1 4 -4 7 -9 7 -6 0 -10 9 -10 21 0 11 -11 39 -23 62 -13 23 -22 48 -20
55 3 6 0 12 -5 12 -9 0 -25 37 -23 53 1 4 -3 7 -8 7 -8 0 -24 37 -22 53 1 4
-3 7 -8 7 -8 0 -24 37 -22 53 1 4 -3 7 -8 7 -8 0 -24 37 -22 53 1 4 -3 7 -8 7
-8 0 -17 21 -19 44 0 5 -4 12 -9 15 -11 8 -30 40 -44 71 -6 14 -20 35 -31 48
-12 12 -17 22 -12 22 5 0 5 4 -1 8 -13 9 -32 39 -46 72 -6 14 -20 35 -31 48
-12 12 -18 22 -13 22 4 0 -3 10 -16 23 -27 26 -44 51 -59 85 -5 12 -14 22 -20
22 -5 0 -10 6 -10 13 0 8 -11 24 -25 37 -14 13 -23 26 -20 28 2 3 -11 20 -31
38 -19 19 -32 34 -28 34 5 0 -10 18 -31 40 -21 22 -35 40 -31 40 5 0 -15 23
-43 50 -28 28 -48 50 -44 50 4 0 -73 81 -172 180 -99 99 -183 180 -188 180 -4
0 -27 20 -50 45 -24 25 -48 45 -53 45 -6 0 -23 14 -39 30 -16 17 -34 30 -39
30 -6 1 -22 14 -36 30 -13 17 -28 30 -33 30 -5 0 -26 14 -46 30 -54 46 -60 50
-66 50 -8 0 -69 44 -73 53 -2 4 -8 7 -13 7 -9 0 -68 38 -79 51 -3 3 -12 9 -20
13 -8 4 -33 18 -55 32 -22 13 -48 27 -57 30 -10 4 -18 10 -18 14 0 5 -13 11
-30 15 -16 4 -30 10 -30 14 0 10 -323 171 -343 171 -10 0 -17 4 -17 9 0 5 -13
12 -30 16 -16 4 -30 11 -30 16 0 5 -10 9 -23 9 -12 0 -31 6 -42 14 -11 7 -35
17 -52 21 -18 3 -33 10 -33 15 0 4 -20 11 -45 14 -25 4 -45 11 -45 15 0 5 -20
12 -45 15 -25 4 -45 11 -45 15 0 5 -20 12 -45 15 -25 4 -45 11 -45 15 0 5 -22
11 -50 15 -27 4 -52 10 -54 15 -3 5 -30 12 -61 16 -30 3 -57 10 -60 15 -2 4
-34 11 -70 15 -36 3 -65 10 -65 15 0 4 -35 11 -77 15 -43 4 -83 11 -88 15 -6
5 -58 12 -115 16 -58 4 -108 11 -111 17 -7 10 -652 18 -821 10z"/>
<path d="M4293 5163 c-24 -2 -43 -8 -43 -13 0 -5 -20 -12 -45 -16 -25 -3 -45
-10 -45 -15 0 -5 -7 -9 -16 -9 -28 0 -153 -66 -167 -87 -4 -7 -14 -13 -21 -13
-7 0 -25 -13 -41 -30 -16 -16 -34 -30 -39 -30 -6 -1 -20 -13 -31 -27 -11 -14
-35 -42 -52 -63 -18 -21 -33 -42 -33 -48 0 -6 -3 -12 -7 -14 -12 -5 -53 -66
-53 -78 0 -5 -4 -10 -9 -10 -5 0 -12 -13 -16 -30 -4 -16 -10 -30 -15 -30 -4 0
-11 -20 -14 -45 -4 -25 -11 -45 -16 -45 -5 0 -12 -27 -16 -60 -4 -33 -11 -60
-15 -60 -12 0 -12 -277 0 -284 4 -3 11 -29 14 -57 4 -28 10 -56 15 -63 5 -6
12 -24 16 -41 9 -38 68 -155 78 -155 4 0 8 -5 8 -10 0 -14 38 -67 68 -96 12
-12 22 -26 22 -31 0 -11 43 -53 54 -53 5 0 18 -10 30 -22 29 -30 82 -68 96
-68 5 0 10 -4 10 -8 0 -10 117 -69 155 -78 17 -4 35 -11 41 -16 7 -5 35 -11
63 -15 28 -3 54 -10 57 -14 7 -12 271 -12 278 0 3 4 29 11 57 14 28 4 56 10
63 15 6 5 25 12 41 16 38 9 155 68 155 78 0 4 5 8 10 8 14 0 67 38 96 68 12
12 26 22 31 22 11 0 53 43 53 54 0 5 10 18 23 30 29 29 67 82 67 96 0 5 4 10
8 10 10 0 69 117 78 155 4 17 11 35 16 41 5 7 11 35 15 63 3 28 10 54 14 57
12 7 12 284 0 284 -4 0 -11 27 -15 60 -4 33 -11 60 -16 60 -5 0 -12 20 -16 45
-3 25 -10 45 -14 45 -5 0 -11 14 -15 30 -4 17 -11 30 -16 30 -5 0 -9 5 -9 10
0 12 -41 73 -52 78 -5 2 -8 8 -8 14 0 6 -15 27 -32 48 -18 21 -42 49 -53 63
-11 14 -25 26 -31 27 -5 0 -23 14 -39 30 -16 17 -34 30 -41 30 -7 0 -17 6 -21
13 -14 21 -139 87 -167 87 -9 0 -16 4 -16 9 0 5 -19 11 -42 15 -23 4 -45 12
-49 18 -7 11 -304 20 -386 11z"/>
<path d="M367 3803 c-11 -10 -8 -63 3 -63 6 0 10 -18 10 -39 0 -22 4 -42 8
-45 5 -3 7 -19 4 -36 -2 -18 0 -30 7 -30 6 0 11 -13 11 -29 0 -17 4 -32 9 -35
4 -3 6 -17 3 -31 -2 -15 0 -25 7 -25 6 0 11 -13 11 -29 0 -17 5 -33 10 -36 6
-3 7 -17 4 -31 -4 -14 -2 -24 5 -24 6 0 11 -11 11 -24 0 -14 4 -27 10 -31 5
-3 7 -12 3 -20 -3 -8 0 -15 6 -15 6 0 11 -11 11 -24 0 -14 4 -27 10 -31 5 -3
7 -12 3 -20 -3 -8 0 -15 6 -15 6 0 11 -11 11 -24 0 -14 4 -27 10 -31 5 -3 7
-12 3 -20 -3 -8 0 -15 6 -15 6 0 11 -11 11 -24 0 -14 4 -27 10 -31 5 -3 7 -12
3 -20 -3 -8 -1 -15 5 -15 9 0 25 -37 23 -52 -1 -5 4 -8 9 -8 6 0 10 -9 10 -21
0 -11 11 -39 23 -62 13 -23 22 -48 20 -54 -3 -7 0 -13 5 -13 9 0 25 -37 23
-52 -1 -5 3 -8 8 -8 8 0 24 -37 22 -52 -1 -5 3 -8 8 -8 8 0 24 -37 22 -52 -1
-5 3 -8 8 -8 8 0 24 -37 22 -52 -1 -5 3 -8 8 -8 7 0 22 -36 20 -49 0 -2 3 -7
8 -10 11 -8 30 -40 44 -71 6 -14 20 -35 31 -47 12 -13 17 -23 12 -23 -5 0 -4
-4 1 -8 13 -9 32 -39 46 -72 6 -14 20 -35 31 -47 12 -13 18 -23 13 -23 -4 0 3
-10 16 -23 27 -26 44 -51 59 -84 5 -13 14 -23 20 -23 5 0 10 -6 10 -13 0 -8
11 -24 25 -37 14 -13 23 -26 20 -28 -2 -3 11 -20 31 -38 19 -19 32 -34 28 -34
-5 0 10 -18 31 -40 21 -22 35 -40 31 -40 -5 0 15 -22 43 -50 28 -27 48 -50 44
-50 -4 0 73 -81 172 -180 99 -99 183 -180 188 -180 4 0 27 -20 50 -45 24 -25
48 -45 53 -45 6 0 23 -13 39 -30 16 -16 34 -30 39 -30 6 -1 22 -14 36 -30 13
-17 28 -30 33 -30 5 0 26 -14 46 -30 54 -46 60 -50 66 -50 8 0 69 -44 73 -52
2 -5 8 -8 13 -8 9 0 68 -38 79 -51 3 -3 12 -9 20 -13 8 -4 33 -18 55 -32 22
-13 48 -27 58 -30 9 -4 17 -10 17 -14 0 -5 14 -11 30 -15 17 -4 30 -10 30 -14
0 -10 323 -171 343 -171 10 0 17 -4 17 -9 0 -5 14 -12 30 -16 17 -4 30 -11 30
-16 0 -5 10 -9 23 -9 12 0 31 -6 42 -14 11 -7 35 -17 53 -21 17 -3 32 -10 32
-15 0 -4 20 -11 45 -14 25 -4 45 -11 45 -15 0 -5 20 -12 45 -15 25 -4 45 -11
45 -15 0 -5 20 -12 45 -15 25 -4 45 -11 45 -15 0 -5 22 -11 50 -15 27 -4 52
-10 54 -15 3 -5 30 -12 61 -16 30 -3 57 -10 60 -15 2 -4 34 -11 70 -15 36 -3
65 -10 65 -15 0 -4 35 -11 78 -15 42 -4 82 -11 87 -15 6 -5 58 -12 115 -16 58
-4 108 -12 112 -18 5 -8 139 -11 453 -11 314 0 448 3 453 11 4 6 54 14 112 18
57 4 109 11 115 16 5 4 45 11 87 15 43 4 78 11 78 15 0 5 29 12 65 15 36 4 68
11 70 15 3 5 30 12 60 15 31 4 58 11 61 16 2 5 27 11 54 15 28 4 50 10 50 15
0 4 20 11 45 15 25 3 45 10 45 15 0 4 20 11 45 15 25 3 45 10 45 15 0 4 20 11
45 15 25 3 45 10 45 14 0 5 15 12 33 15 17 4 41 14 52 21 11 8 30 14 42 14 13
0 23 4 23 9 0 5 14 12 30 16 17 4 30 11 30 16 0 5 7 9 17 9 20 0 343 161 343
171 0 4 14 10 30 14 17 4 30 10 30 15 0 4 8 10 18 14 9 3 35 17 57 30 22 14
47 28 55 32 8 4 17 10 20 13 11 13 70 51 79 51 5 0 11 3 13 8 4 8 65 52 73 52
6 0 12 4 66 50 20 16 41 30 46 30 5 0 20 13 33 30 14 16 30 29 36 30 5 0 23
14 39 30 16 17 33 30 39 30 5 0 29 20 53 45 23 25 46 45 50 45 5 0 89 81 188
180 99 99 176 180 172 180 -4 0 16 22 44 50 28 27 48 50 43 50 -4 0 10 18 31
40 21 22 36 40 31 40 -4 0 9 15 28 34 20 18 33 35 31 38 -3 2 6 15 20 28 14
13 25 29 25 37 0 7 5 13 10 13 6 0 15 10 20 23 15 33 32 58 59 84 13 13 20 23
16 23 -5 0 1 10 13 22 11 13 25 34 31 48 14 33 33 63 46 72 6 4 6 8 1 8 -5 0
0 10 12 22 11 13 25 34 31 48 14 31 33 63 44 71 5 3 9 9 9 12 0 19 12 47 19
47 5 0 9 3 8 8 -2 15 14 52 22 52 5 0 9 3 8 8 -2 15 14 52 22 52 5 0 9 3 8 8
-2 15 14 52 22 52 5 0 9 3 8 8 -2 15 14 52 23 52 5 0 8 6 5 13 -2 6 7 31 20
54 12 23 23 51 23 62 0 12 5 21 10 21 6 0 10 3 9 8 -2 15 14 52 23 52 6 0 8 7
5 15 -4 8 -2 17 3 20 6 4 10 17 10 31 0 13 5 24 11 24 6 0 9 7 6 15 -4 8 -2
17 3 20 6 4 10 17 10 31 0 13 5 24 11 24 6 0 9 7 6 15 -4 8 -2 17 3 20 6 4 10
17 10 31 0 13 5 24 11 24 6 0 9 7 6 15 -4 8 -2 17 3 20 6 4 10 17 10 31 0 13
5 24 11 24 7 0 9 10 5 24 -3 14 -2 28 4 31 5 3 10 19 10 36 0 16 5 29 11 29 7
0 9 10 7 25 -3 14 -1 28 3 31 5 3 9 18 9 35 0 16 5 29 11 29 7 0 9 12 7 30 -3
17 -1 33 4 36 4 3 8 23 8 45 0 21 5 39 11 39 6 0 9 14 7 33 l-3 32 -1350 3
-1350 2 -12 -27 c-7 -16 -15 -40 -19 -55 -3 -16 -10 -28 -14 -28 -5 0 -11 -13
-15 -30 -4 -16 -10 -30 -15 -30 -5 0 -11 -13 -15 -30 -4 -16 -11 -30 -16 -30
-5 0 -9 -5 -9 -11 0 -6 -13 -28 -30 -49 -16 -21 -30 -41 -30 -45 0 -5 -16 -27
-35 -51 -19 -23 -35 -46 -35 -51 0 -12 -233 -243 -246 -243 -6 0 -19 -9 -29
-20 -10 -11 -24 -20 -32 -20 -7 0 -13 -4 -13 -9 0 -10 -38 -34 -72 -47 -10 -3
-18 -10 -18 -14 0 -12 -198 -110 -221 -110 -10 0 -19 -4 -19 -9 0 -6 -20 -13
-45 -17 -25 -3 -45 -10 -45 -15 0 -4 -20 -11 -45 -15 -25 -3 -45 -10 -45 -14
0 -5 -35 -11 -77 -15 -43 -4 -84 -12 -91 -18 -9 -7 -88 -11 -217 -11 -129 0
-208 4 -217 11 -7 6 -48 14 -90 18 -43 4 -78 10 -78 15 0 4 -20 11 -45 14 -25
4 -45 11 -45 15 0 5 -20 12 -45 15 -25 4 -45 11 -45 17 0 5 -9 9 -19 9 -23 0
-221 98 -221 110 0 4 -8 10 -17 14 -23 7 -48 23 -100 64 -23 17 -45 32 -50 32
-10 0 -243 232 -243 243 0 5 -16 28 -35 51 -19 24 -35 46 -35 51 0 4 -13 24
-30 45 -16 21 -30 43 -30 49 0 6 -4 11 -9 11 -5 0 -12 14 -16 30 -4 17 -10 30
-15 30 -5 0 -11 14 -15 30 -4 17 -10 30 -15 30 -4 0 -11 12 -14 28 -4 15 -12
39 -19 55 l-12 27 -1316 0 c-724 0 -1319 -3 -1322 -7z"/>
</g>
</svg>
